# xmcd CD database file
#
# Track frame offsets:
#	150
#	17090
#	38702
#	51964
#	91140
#	125015
#	155940
#	173427
#	194250
#
# Disc length: 2963 seconds
#
# Revision: 2
# Processed by: cddbd v1.5PL3 Copyright (c) Steve Scherf et al.
# Submitted via: CDex 1.51
#
DISCID=700b9109
DTITLE=Ella Fitzgerald - Ella in London
DYEAR=1974
DGENRE=Jazz
TTITLE0=Sweet Georgia Brown
TTITLE1=They can't take that away from me
TTITLE2=Everytime we say goodbye
TTITLE3=The man I love
TTITLE4=It don't mean a thing
TTITLE5=You've got a friend
TTITLE6=Lemon Drop
TTITLE7=The very thought of you
TTITLE8=Happy Blues
EXTD=YEAR: 1974
EXTT0=
EXTT1=
EXTT2=
EXTT3=
EXTT4=( If it ain't got that swing ]\n
EXTT5=
EXTT6=
EXTT7=
EXTT8=
PLAYORDER=
